<svg width="24" height="24" viewBox="0 0 24 24" fill="none" xmlns="http://www.w3.org/2000/svg">
<path fill-rule="evenodd" clip-rule="evenodd" d="M12.949 2.9305C14.0334 1.88309 15.4859 1.30352 16.9935 1.31662C18.5012 1.32972 19.9433 1.93445 21.0094 3.00054C22.0755 4.06664 22.6803 5.50881 22.6934 7.01644C22.7065 8.52407 22.1269 9.97654 21.0795 11.061L21.0704 11.0704L18.0704 14.0702C17.4875 14.6533 16.786 15.1043 16.0135 15.3924C15.241 15.6806 14.4155 15.7993 13.5931 15.7404C12.7707 15.6815 11.9705 15.4464 11.247 15.0511C10.5234 14.6558 9.89331 14.1094 9.39944 13.4492C9.15134 13.1175 9.21909 12.6475 9.55078 12.3994C9.88247 12.1513 10.3525 12.219 10.6006 12.5507C10.9656 13.0387 11.4313 13.4425 11.9662 13.7347C12.501 14.0269 13.0924 14.2007 13.7002 14.2442C14.3081 14.2877 14.9182 14.2 15.4892 13.987C16.0602 13.774 16.5787 13.4407 17.0096 13.0097L20.0049 10.0144C20.7763 9.21336 21.2031 8.14173 21.1934 7.02948C21.1837 5.91514 20.7368 4.84919 19.9488 4.0612C19.1608 3.27322 18.0948 2.82625 16.9805 2.81657C15.8679 2.8069 14.796 3.23393 13.9948 4.00581L12.2788 5.71184C11.985 6.00388 11.5102 6.00249 11.2181 5.70875C10.9261 5.415 10.9275 4.94013 11.2212 4.64809L12.949 2.9305Z" fill="black"/>
<path fill-rule="evenodd" clip-rule="evenodd" d="M7.98648 8.6075C8.759 8.31933 9.58447 8.20066 10.4069 8.25956C11.2293 8.31846 12.0294 8.55355 12.753 8.94887C13.4766 9.34419 14.1067 9.8905 14.6005 10.5507C14.8486 10.8824 14.7809 11.3524 14.4492 11.6006C14.1175 11.8487 13.6475 11.7809 13.3994 11.4492C13.0343 10.9612 12.5686 10.5574 12.0338 10.2652C11.499 9.97302 10.9076 9.79927 10.2997 9.75573C9.69186 9.7122 9.08173 9.7999 8.51074 10.0129C7.93974 10.2259 7.42123 10.5592 6.99038 10.9902L3.99508 13.9855C3.22365 14.7866 2.79689 15.8582 2.80656 16.9705C2.81624 18.0848 3.26321 19.1508 4.05119 19.9387C4.83918 20.7267 5.90513 21.1737 7.01947 21.1834C8.13172 21.193 9.20334 20.7663 10.0044 19.9949L11.7096 18.2897C12.0025 17.9968 12.4774 17.9968 12.7703 18.2896C13.0632 18.5825 13.0632 19.0574 12.7703 19.3503L11.0511 21.0695C9.9666 22.1169 8.51406 22.6964 7.00643 22.6833C5.4988 22.6702 4.05663 22.0655 2.99053 20.9994C1.92444 19.9333 1.31971 18.4911 1.30661 16.9835C1.29351 15.4759 1.87308 14.0234 2.92049 12.9389L2.92955 12.9296L5.92953 9.92975C5.9295 9.92978 5.92956 9.92971 5.92953 9.92975C6.51243 9.34666 7.214 8.89566 7.98648 8.6075Z" fill="black"/>
</svg>
