<svg width="16" height="16" viewBox="0 0 16 16" fill="none" xmlns="http://www.w3.org/2000/svg">
<path fill-rule="evenodd" clip-rule="evenodd" d="M8 2.5C4.96243 2.5 2.5 4.96243 2.5 8C2.5 8.70797 2.63351 9.38355 2.87628 10.0038C3.00202 10.3251 3.064 10.6928 3.00071 11.0686L2.60972 13.3903L4.93136 12.9993C5.3072 12.936 5.67494 12.998 5.99621 13.1237C6.61645 13.3665 7.29204 13.5 8 13.5C11.0376 13.5 13.5 11.0376 13.5 8C13.5 4.96243 11.0376 2.5 8 2.5ZM1.5 8C1.5 4.41015 4.41015 1.5 8 1.5C11.5899 1.5 14.5 4.41015 14.5 8C14.5 11.5899 11.5899 14.5 8 14.5C7.16531 14.5 6.36623 14.3424 5.63173 14.0549C5.44384 13.9814 5.26076 13.9579 5.09743 13.9854L2.54487 14.4153C1.97984 14.5104 1.48956 14.0202 1.58472 13.4551L2.01459 10.9026C2.0421 10.7392 2.01861 10.5562 1.94507 10.3683C1.65758 9.63377 1.5 8.83469 1.5 8Z" fill="#818181"/>
<path fill-rule="evenodd" clip-rule="evenodd" d="M4.83337 6.6665C4.83337 6.39036 5.05723 6.1665 5.33337 6.1665H10.6667C10.9428 6.1665 11.1667 6.39036 11.1667 6.6665C11.1667 6.94265 10.9428 7.1665 10.6667 7.1665H5.33337C5.05723 7.1665 4.83337 6.94265 4.83337 6.6665ZM4.83337 9.33317C4.83337 9.05703 5.05723 8.83317 5.33337 8.83317H8.00004C8.27618 8.83317 8.50004 9.05703 8.50004 9.33317C8.50004 9.60931 8.27618 9.83317 8.00004 9.83317H5.33337C5.05723 9.83317 4.83337 9.60931 4.83337 9.33317Z" fill="#818181"/>
</svg>
