<svg width="20" height="20" viewBox="0 0 20 20" fill="none" xmlns="http://www.w3.org/2000/svg">
<path fill-rule="evenodd" clip-rule="evenodd" d="M3.2359 13.1909C4.10452 12.3464 5.27897 11.875 6.5 11.875H13.5C14.721 11.875 15.8955 12.3464 16.7641 13.1909C17.6333 14.036 18.125 15.186 18.125 16.3889V18.3333C18.125 18.6785 17.8452 18.9583 17.5 18.9583C17.1548 18.9583 16.875 18.6785 16.875 18.3333V16.3889C16.875 15.529 16.5238 14.7007 15.8928 14.0872C15.2611 13.473 14.4007 13.125 13.5 13.125H6.5C5.5993 13.125 4.73892 13.473 4.10725 14.0872C3.47617 14.7007 3.125 15.529 3.125 16.3889V18.3333C3.125 18.6785 2.84518 18.9583 2.5 18.9583C2.15482 18.9583 1.875 18.6785 1.875 18.3333V16.3889C1.875 15.186 2.36668 14.036 3.2359 13.1909Z" fill="#818181"/>
<path fill-rule="evenodd" clip-rule="evenodd" d="M10 2.29163C8.04399 2.29163 6.45833 3.87728 6.45833 5.83329C6.45833 7.7893 8.04399 9.37496 10 9.37496C11.956 9.37496 13.5417 7.7893 13.5417 5.83329C13.5417 3.87728 11.956 2.29163 10 2.29163ZM5.20833 5.83329C5.20833 3.18693 7.35363 1.04163 10 1.04163C12.6464 1.04163 14.7917 3.18693 14.7917 5.83329C14.7917 8.47966 12.6464 10.625 10 10.625C7.35363 10.625 5.20833 8.47966 5.20833 5.83329Z" fill="#818181"/>
</svg>
