<svg width="24" height="24" viewBox="0 0 24 24" fill="none" xmlns="http://www.w3.org/2000/svg">
<path fill-rule="evenodd" clip-rule="evenodd" d="M20.7269 3.12603C20.4369 2.87705 20.0655 2.74324 19.6833 2.75L19.67 2.75023L17.75 2.75012V12.2501H19.6833C20.0655 12.2569 20.4369 12.1232 20.7269 11.8742C21.0054 11.6351 21.1904 11.3059 21.25 10.9447V4.05557C21.1904 3.69438 21.0054 3.3651 20.7269 3.12603ZM16.25 12.841L12.5343 21.2014C12.1112 21.1119 11.7194 20.9015 11.409 20.5911C10.9871 20.1692 10.75 19.5969 10.75 19.0001V15.0001C10.75 14.5859 10.4142 14.2501 10 14.2501H4.34L4.33151 14.2502C4.15031 14.2522 3.97084 14.2149 3.80552 14.1407C3.64021 14.0665 3.493 13.9572 3.3741 13.8205C3.25519 13.6837 3.16744 13.5228 3.11692 13.3488C3.06645 13.1749 3.05434 12.9922 3.08143 12.8132C3.0814 12.8133 3.08146 12.813 3.08143 12.8132L4.46152 3.81257C4.50672 3.5145 4.65813 3.24282 4.88783 3.04757C5.11754 2.85232 5.41007 2.74666 5.71152 2.75007L16.25 2.75012V12.841ZM19.6638 1.25012C20.411 1.23863 21.1367 1.50099 21.7039 1.98784C22.2729 2.47622 22.6427 3.15652 22.7432 3.89959C22.7477 3.93291 22.75 3.96649 22.75 4.00012V11.0001C22.75 11.0337 22.7477 11.0673 22.7432 11.1006C22.6427 11.8437 22.2729 12.524 21.7039 13.0124C21.1367 13.4992 20.411 13.7616 19.6638 13.7501H17.4874L13.6854 22.3047C13.565 22.5756 13.2964 22.7501 13 22.7501C12.0054 22.7501 11.0516 22.355 10.3483 21.6518C9.64509 20.9485 9.25 19.9947 9.25 19.0001V15.7501H4.34395C3.94687 15.754 3.55365 15.6718 3.19133 15.5091C2.82763 15.3459 2.50377 15.1056 2.24219 14.8047C1.9806 14.5039 1.78755 14.1498 1.6764 13.767C1.56525 13.3841 1.53867 12.9817 1.59849 12.5876L2.97848 3.58767C2.97844 3.58788 2.97851 3.58745 2.97848 3.58767C3.07805 2.93218 3.41118 2.33406 3.91636 1.90466C4.42055 1.4761 5.06232 1.24374 5.7239 1.25012H19.6638Z" fill="#1877F2"/>
</svg>
